<svg width="27" height="39" viewBox="0 0 27 39" fill="none" xmlns="http://www.w3.org/2000/svg">
<path fill-rule="evenodd" clip-rule="evenodd" d="M10.9178 38.8208C6.98673 37.9136 3.11612 34.8897 1.4832 31.4122C0.182919 28.6604 0.0619618 27.3299 0.182919 18.3489C0.273636 10.396 0.303875 9.82142 0.969137 8.1885C2.84397 3.47119 7.13793 0.537988 12.6112 0.175117C19.5965 -0.27847 25.3419 3.77358 26.7027 10.0936C26.9446 11.2124 27.0353 14.448 26.9748 20.2237C26.8539 28.2673 26.8236 28.7511 26.1584 30.4445C24.7674 33.922 21.4108 37.1274 18.024 38.1858C15.6956 38.9417 12.6415 39.2139 10.9178 38.8208ZM10.2526 36.4319C7.01697 35.313 4.59784 33.1661 3.1766 30.0817C2.4811 28.5697 2.36014 27.9649 2.29966 24.4572L2.20894 20.5261L2.90444 21.403C3.26731 21.9171 4.26521 23.1267 5.11191 24.0943C10.3433 30.2933 12.0064 32.9544 12.3391 35.7062C12.5205 37.1879 12.4903 37.1879 10.2526 36.4319ZM14.7582 36.6738C14.4256 36.0993 15.7863 32.2891 16.9959 30.4445C17.6612 29.4164 19.1429 27.5113 20.292 26.2111C21.4411 24.9108 22.8925 23.1569 23.5276 22.3404C24.1626 21.4937 24.7371 20.7378 24.7976 20.6773C24.8883 20.5866 24.9186 22.28 24.8581 24.4572C24.7674 28.0254 24.6767 28.5395 23.8904 30.2631C22.9833 32.2286 20.6851 34.7083 18.901 35.5852C17.2983 36.4319 14.9396 37.0367 14.7582 36.6738ZM11.4621 28.7511C11.0388 28.0556 9.52682 26.1203 8.10558 24.4572C3.69066 19.3468 2.23918 16.595 2.23918 13.4501C2.23918 9.48878 6.14004 6.7975 9.46635 8.49089C10.8271 9.15615 11.7645 10.8798 12.2484 13.4804L12.6112 15.5669L10.7364 17.4114L8.8918 19.2863L10.7062 21.1913L12.5205 23.0964L12.3693 26.5739L12.2181 30.0514L11.4621 28.7511ZM5.56549 14.8109C4.65832 13.7827 4.74903 12.0894 5.74693 11.3031C7.5008 9.94237 9.79898 10.9705 9.79898 13.1477C9.79898 15.2645 6.92626 16.3833 5.56549 14.8109ZM14.6372 26.4832V22.915L16.4516 21.1006L18.2659 19.3165L16.3911 17.4417L14.5465 15.5669L14.8792 13.6618C15.0606 12.6034 15.5444 11.1519 15.9073 10.4262C18.2055 5.9508 24.8883 8.06754 24.8883 13.2687C24.9186 16.5345 23.4368 19.4375 19.4755 23.9431C18.2962 25.3039 16.7237 27.2392 15.998 28.2371L14.6372 30.0514V26.4832ZM17.9636 14.7202C17.1169 13.6316 17.1773 12.3313 18.0845 11.4241C19.6569 9.85166 22.197 10.91 22.197 13.1477C22.197 15.3249 19.2336 16.4136 17.9636 14.7202ZM12.6415 20.1027L11.8855 19.256L12.7624 18.4396L13.6091 17.6231L14.4256 18.5303L15.242 19.4677L14.3349 20.2237L13.4277 20.9797L12.6415 20.1027ZM12.2181 7.97683C12.2181 7.82563 11.5528 7.31156 10.7969 6.85798C9.28491 5.98104 6.95649 5.73913 5.11191 6.25319L4.20473 6.49511L5.2631 5.4065C6.50291 4.10621 9.40587 2.62449 11.2202 2.3221L12.5205 2.14066V5.19482C12.5205 6.88822 12.4298 8.27922 12.3693 8.27922C12.2786 8.27922 12.2181 8.12802 12.2181 7.97683ZM14.6372 5.19482V2.14066L15.9073 2.3221C17.7216 2.62449 20.6246 4.10621 21.8946 5.4065L22.953 6.49511L22.0458 6.25319C19.5965 5.58793 16.6935 6.19271 15.242 7.67443C14.6372 8.27922 14.6372 8.27922 14.6372 5.19482Z" fill="#020202"/>
</svg>
